<?xml version="1.0" standalone="no"?>
<!DOCTYPE svg PUBLIC "-//W3C//DTD SVG 20010904//EN"
 "http://www.w3.org/TR/2001/REC-SVG-20010904/DTD/svg10.dtd">
<svg version="1.0" xmlns="http://www.w3.org/2000/svg"
 width="500.000000pt" height="500.000000pt" viewBox="0 0 500.000000 500.000000"
 preserveAspectRatio="xMidYMid meet">

<g transform="translate(0.000000,500.000000) scale(0.100000,-0.100000)"
fill="#000000" stroke="none">
<path d="M1685 3684 c-280 -59 -467 -220 -555 -481 -33 -94 -34 -104 -34 -248
0 -135 3 -159 28 -240 52 -173 139 -309 331 -523 31 -35 204 -188 290 -257
176 -142 480 -346 715 -479 129 -74 130 -71 7 9 -93 61 -277 186 -317 215
-278 207 -340 256 -499 400 -186 168 -361 397 -419 546 -102 268 -48 581 134
768 83 86 167 140 266 171 131 41 356 32 513 -20 122 -41 260 -123 358 -214
l48 -45 67 66 c176 173 368 247 607 235 170 -9 301 -58 402 -150 161 -147 235
-374 199 -612 -37 -241 -133 -404 -395 -665 -175 -174 -507 -443 -724 -585
-39 -26 -54 -41 -45 -46 15 -9 -6 -21 213 125 389 259 670 504 841 734 79 107
157 261 185 367 33 123 37 287 10 400 -60 250 -221 426 -466 506 -60 20 -90
23 -215 23 -162 0 -224 -12 -346 -69 -101 -46 -179 -102 -260 -185 l-71 -71
-54 46 c-162 139 -388 249 -565 275 -68 9 -210 12 -249 4z"/>
<path d="M1531 3184 c-90 -45 -131 -122 -116 -222 6 -39 15 -55 54 -93 31 -30
63 -50 94 -58 26 -8 47 -15 47 -16 0 -1 -7 -15 -15 -32 -23 -46 -37 -133 -29
-188 10 -78 72 -145 135 -145 19 0 18 3 -12 23 -60 40 -70 122 -33 257 21 75
37 90 93 90 73 1 186 32 271 75 107 54 218 143 246 196 32 63 4 110 -66 108
-34 -1 -34 -2 8 -9 63 -10 75 -35 47 -94 -41 -86 -196 -180 -365 -222 -59 -14
-170 -19 -170 -6 0 25 94 132 170 191 l55 43 29 -33 29 -34 -22 37 -21 36 32
20 c18 11 49 27 68 35 19 9 28 16 20 16 -8 0 -39 -10 -68 -24 -30 -14 -58 -25
-62 -25 -14 0 -164 -107 -217 -154 -27 -25 -60 -61 -74 -81 -21 -31 -28 -35
-53 -30 -53 10 -119 50 -148 89 -71 98 -8 225 130 262 32 9 39 13 21 13 -14 1
-49 -11 -78 -25z"/>
<path d="M1738 3203 c7 -3 16 -2 19 1 4 3 -2 6 -13 5 -11 0 -14 -3 -6 -6z"/>
<path d="M2108 3163 c7 -3 16 -2 19 1 4 3 -2 6 -13 5 -11 0 -14 -3 -6 -6z"/>
<path d="M1900 2757 c-106 -56 -152 -135 -163 -284 -3 -35 0 -53 7 -53 6 0 12
19 12 43 2 61 19 114 56 177 36 60 113 120 154 120 54 0 80 -67 53 -137 -16
-43 -78 -113 -128 -144 -25 -16 -41 -29 -35 -29 17 0 68 36 108 76 66 66 92
148 65 208 -17 37 -81 48 -129 23z"/>
<path d="M3068 2708 c20 -20 14 -35 -58 -144 -89 -132 -90 -134 -52 -134 26 0
41 12 96 78 90 108 96 112 89 65 -6 -49 15 -72 50 -54 12 6 15 10 5 7 -9 -3
-24 1 -33 8 -32 23 -2 73 73 120 41 26 53 48 31 61 -18 12 -63 -15 -93 -55
-16 -22 -45 -54 -63 -72 l-34 -33 16 39 c22 53 22 96 0 112 -23 17 -43 18 -27
2z"/>
<path d="M2181 2677 c-17 -19 -31 -38 -30 -43 2 -5 -9 -32 -24 -61 -29 -55
-35 -111 -15 -131 15 -15 65 -16 74 -1 4 7 -2 9 -17 7 -19 -2 -25 2 -27 23 -2
19 15 53 62 122 37 53 66 101 66 107 0 24 -57 9 -89 -23z"/>
<path d="M2430 2702 c-8 -1 -37 -34 -65 -73 -27 -39 -76 -95 -108 -125 -32
-30 -54 -54 -50 -54 5 0 27 18 48 40 21 22 42 40 45 40 3 0 4 -16 2 -35 -2
-19 1 -42 8 -50 14 -17 48 -19 70 -4 12 8 10 9 -9 4 -59 -17 -42 37 54 170 30
42 55 81 55 85 0 8 -19 9 -50 2z"/>
<path d="M2661 2685 c-38 -18 -82 -55 -155 -130 -57 -58 -101 -105 -98 -105 2
0 33 28 69 63 63 59 65 61 59 31 -8 -35 7 -81 32 -100 9 -8 36 -14 59 -14 32
0 52 8 87 35 26 19 53 35 62 35 8 0 12 5 9 10 -4 6 6 35 20 65 27 55 28 92 3
122 -17 21 -89 15 -147 -12z m137 3 c17 -17 15 -69 -6 -99 -9 -15 -29 -44 -43
-66 -59 -87 -169 -112 -169 -39 0 34 49 124 87 163 51 50 105 67 131 41z"/>
<path d="M3002 2680 c-23 -17 -42 -33 -42 -36 0 -4 56 34 85 58 23 20 -6 5
-43 -22z"/>
<path d="M3427 2695 c-20 -8 -46 -20 -56 -27 -34 -24 -156 -143 -129 -125 35
22 41 22 33 -3 -4 -11 -1 -36 5 -54 12 -37 59 -67 102 -65 20 1 20 2 3 6 -74
18 -73 104 2 118 51 9 128 50 147 77 48 68 -11 108 -107 73z m89 -10 c6 -14
-15 -55 -41 -81 -17 -17 -92 -54 -110 -54 -20 0 -19 6 10 56 41 70 127 117
141 79z"/>
<path d="M2124 2608 l-19 -23 23 19 c21 18 27 26 19 26 -2 0 -12 -10 -23 -22z"/>
<path d="M2921 2598 c-14 -17 -45 -44 -70 -59 -25 -16 -37 -29 -28 -29 9 0 45
27 79 60 35 32 59 59 53 59 -5 0 -21 -14 -34 -31z"/>
<path d="M3530 2515 c-24 -25 -62 -54 -85 -65 -22 -11 -34 -20 -27 -20 30 0
103 53 142 103 31 40 20 33 -30 -18z"/>
<path d="M1795 2440 l-20 -9 20 0 c11 0 27 4 35 9 13 9 13 10 0 9 -8 0 -24 -4
-35 -9z"/>
<path d="M1751 2390 c0 -8 4 -22 9 -30 12 -18 12 -2 0 25 -6 13 -9 15 -9 5z"/>
</g>
</svg>
